%TF.GenerationSoftware,KiCad,Pcbnew,9.0.1*%
%TF.CreationDate,2025-04-16T19:20:36-05:00*%
%TF.ProjectId,mt,6d742e6b-6963-4616-945f-706362585858,rev?*%
%TF.SameCoordinates,Original*%
%TF.FileFunction,Soldermask,Top*%
%TF.FilePolarity,Negative*%
%FSLAX46Y46*%
G04 Gerber Fmt 4.6, Leading zero omitted, Abs format (unit mm)*
G04 Created by KiCad (PCBNEW 9.0.1) date 2025-04-16 19:20:36*
%MOMM*%
%LPD*%
G01*
G04 APERTURE LIST*
G04 Aperture macros list*
%AMRoundRect*
0 Rectangle with rounded corners*
0 $1 Rounding radius*
0 $2 $3 $4 $5 $6 $7 $8 $9 X,Y pos of 4 corners*
0 Add a 4 corners polygon primitive as box body*
4,1,4,$2,$3,$4,$5,$6,$7,$8,$9,$2,$3,0*
0 Add four circle primitives for the rounded corners*
1,1,$1+$1,$2,$3*
1,1,$1+$1,$4,$5*
1,1,$1+$1,$6,$7*
1,1,$1+$1,$8,$9*
0 Add four rect primitives between the rounded corners*
20,1,$1+$1,$2,$3,$4,$5,0*
20,1,$1+$1,$4,$5,$6,$7,0*
20,1,$1+$1,$6,$7,$8,$9,0*
20,1,$1+$1,$8,$9,$2,$3,0*%
G04 Aperture macros list end*
%ADD10RoundRect,0.135000X-0.185000X0.135000X-0.185000X-0.135000X0.185000X-0.135000X0.185000X0.135000X0*%
%ADD11RoundRect,0.135000X0.185000X-0.135000X0.185000X0.135000X-0.185000X0.135000X-0.185000X-0.135000X0*%
%ADD12RoundRect,0.135000X-0.135000X-0.185000X0.135000X-0.185000X0.135000X0.185000X-0.135000X0.185000X0*%
%ADD13R,1.337000X1.337000*%
%ADD14C,1.337000*%
%ADD15C,2.190000*%
%ADD16RoundRect,0.140000X-0.140000X-0.170000X0.140000X-0.170000X0.140000X0.170000X-0.140000X0.170000X0*%
%ADD17R,0.800000X0.250000*%
%ADD18R,0.700000X0.250000*%
%ADD19RoundRect,0.140000X0.170000X-0.140000X0.170000X0.140000X-0.170000X0.140000X-0.170000X-0.140000X0*%
%ADD20RoundRect,0.250000X-0.325000X-0.650000X0.325000X-0.650000X0.325000X0.650000X-0.325000X0.650000X0*%
%ADD21RoundRect,0.140000X-0.170000X0.140000X-0.170000X-0.140000X0.170000X-0.140000X0.170000X0.140000X0*%
%ADD22R,2.750000X1.400000*%
%ADD23RoundRect,0.225000X-0.225000X-0.250000X0.225000X-0.250000X0.225000X0.250000X-0.225000X0.250000X0*%
%ADD24C,2.400000*%
%ADD25R,1.700000X1.700000*%
%ADD26C,1.700000*%
%ADD27RoundRect,0.250000X0.325000X0.650000X-0.325000X0.650000X-0.325000X-0.650000X0.325000X-0.650000X0*%
%ADD28RoundRect,0.225000X0.375000X-0.225000X0.375000X0.225000X-0.375000X0.225000X-0.375000X-0.225000X0*%
%ADD29R,1.528000X0.650000*%
%ADD30RoundRect,0.135000X0.135000X0.185000X-0.135000X0.185000X-0.135000X-0.185000X0.135000X-0.185000X0*%
%ADD31R,0.500000X0.630000*%
%ADD32R,0.500000X0.410000*%
%ADD33R,2.450000X1.900000*%
%ADD34R,1.500000X1.500000*%
%ADD35C,1.500000*%
%ADD36C,4.455000*%
%ADD37C,0.800000*%
%ADD38C,6.400000*%
%ADD39R,0.300000X1.475000*%
%ADD40R,1.475000X0.300000*%
%ADD41C,1.200000*%
%ADD42R,1.825000X0.700000*%
%ADD43C,1.800000*%
%ADD44C,4.800000*%
%ADD45R,1.200000X0.600000*%
%ADD46R,0.700000X1.850000*%
%ADD47R,0.300000X1.400000*%
%ADD48R,1.800000X1.800000*%
%ADD49R,1.400000X0.600000*%
%ADD50RoundRect,0.225000X-0.250000X0.225000X-0.250000X-0.225000X0.250000X-0.225000X0.250000X0.225000X0*%
%ADD51C,1.980000*%
%ADD52C,5.325000*%
%ADD53C,3.585000*%
G04 APERTURE END LIST*
D10*
%TO.C,R16*%
X68580000Y-63625000D03*
X68580000Y-64645000D03*
%TD*%
D11*
%TO.C,R2*%
X82804000Y-25656000D03*
X82804000Y-24636000D03*
%TD*%
D12*
%TO.C,R14*%
X189228000Y-33909000D03*
X190248000Y-33909000D03*
%TD*%
D13*
%TO.C,S1*%
X94054000Y-21590000D03*
D14*
X92054000Y-21590000D03*
X90054000Y-21590000D03*
D15*
X96154000Y-21590000D03*
X87954000Y-21590000D03*
%TD*%
D16*
%TO.C,C20*%
X123500000Y-50800000D03*
X124460000Y-50800000D03*
%TD*%
%TO.C,C11*%
X202875000Y-40640000D03*
X203835000Y-40640000D03*
%TD*%
D10*
%TO.C,R17*%
X85090000Y-63625000D03*
X85090000Y-64645000D03*
%TD*%
%TO.C,R36*%
X168275000Y-142365000D03*
X168275000Y-143385000D03*
%TD*%
D12*
%TO.C,R7*%
X188720000Y-52705000D03*
X189740000Y-52705000D03*
%TD*%
D10*
%TO.C,R26*%
X86995000Y-119505000D03*
X86995000Y-120525000D03*
%TD*%
%TO.C,R39*%
X208280000Y-100455000D03*
X208280000Y-101475000D03*
%TD*%
%TO.C,R19*%
X85090000Y-76325000D03*
X85090000Y-77345000D03*
%TD*%
D17*
%TO.C,IC2*%
X168325000Y-26305000D03*
D18*
X168275000Y-26805000D03*
X168275000Y-27305000D03*
X169475000Y-27305000D03*
X169475000Y-26805000D03*
X169475000Y-26305000D03*
%TD*%
D12*
%TO.C,R3*%
X167255000Y-23495000D03*
X168275000Y-23495000D03*
%TD*%
D19*
%TO.C,C4*%
X86995000Y-27150000D03*
X86995000Y-26190000D03*
%TD*%
D20*
%TO.C,C3*%
X170610000Y-22225000D03*
X173560000Y-22225000D03*
%TD*%
D21*
%TO.C,C2*%
X83820000Y-30889000D03*
X83820000Y-31849000D03*
%TD*%
D10*
%TO.C,R21*%
X85090000Y-89025000D03*
X85090000Y-90045000D03*
%TD*%
D22*
%TO.C,S3*%
X76635000Y-67215000D03*
X83385000Y-67215000D03*
X76635000Y-71215000D03*
X83385000Y-71215000D03*
%TD*%
%TO.C,S5*%
X76635000Y-79915000D03*
X83385000Y-79915000D03*
X76635000Y-83915000D03*
X83385000Y-83915000D03*
%TD*%
D10*
%TO.C,R38*%
X183515000Y-142365000D03*
X183515000Y-143385000D03*
%TD*%
D22*
%TO.C,S20*%
X144580000Y-145955000D03*
X151330000Y-145955000D03*
X144580000Y-149955000D03*
X151330000Y-149955000D03*
%TD*%
D10*
%TO.C,R24*%
X70485000Y-130935000D03*
X70485000Y-131955000D03*
%TD*%
%TO.C,R34*%
X153035000Y-142365000D03*
X153035000Y-143385000D03*
%TD*%
D23*
%TO.C,C15*%
X123387091Y-44958000D03*
X124937091Y-44958000D03*
%TD*%
D24*
%TO.C,J2*%
X70280000Y-22475000D03*
X70280000Y-35945000D03*
X66880000Y-22475000D03*
X66880000Y-35945000D03*
%TD*%
D10*
%TO.C,R32*%
X137795000Y-142365000D03*
X137795000Y-143385000D03*
%TD*%
D16*
%TO.C,C22*%
X113185000Y-74295000D03*
X114145000Y-74295000D03*
%TD*%
%TO.C,C23*%
X126520000Y-88265000D03*
X127480000Y-88265000D03*
%TD*%
D10*
%TO.C,R29*%
X107315000Y-142365000D03*
X107315000Y-143385000D03*
%TD*%
D21*
%TO.C,C9*%
X173402000Y-61615000D03*
X173402000Y-62575000D03*
%TD*%
D22*
%TO.C,S14*%
X91240000Y-134525000D03*
X97990000Y-134525000D03*
X91240000Y-138525000D03*
X97990000Y-138525000D03*
%TD*%
D10*
%TO.C,R49*%
X194945000Y-111885000D03*
X194945000Y-112905000D03*
%TD*%
D25*
%TO.C,J5*%
X121285000Y-53340000D03*
D26*
X123825000Y-53340000D03*
X126365000Y-53340000D03*
X128905000Y-53340000D03*
X131445000Y-53340000D03*
X133985000Y-53340000D03*
X136525000Y-53340000D03*
X139065000Y-53340000D03*
X141605000Y-53340000D03*
%TD*%
D16*
%TO.C,C25*%
X160175000Y-74295000D03*
X161135000Y-74295000D03*
%TD*%
D25*
%TO.C,J7*%
X147320000Y-62865000D03*
D26*
X149860000Y-62865000D03*
X152400000Y-62865000D03*
%TD*%
D10*
%TO.C,R18*%
X68580000Y-76325000D03*
X68580000Y-77345000D03*
%TD*%
D21*
%TO.C,C14*%
X70485000Y-51590000D03*
X70485000Y-52550000D03*
%TD*%
D10*
%TO.C,R25*%
X70485000Y-142365000D03*
X70485000Y-143385000D03*
%TD*%
D27*
%TO.C,C13*%
X201246000Y-36957000D03*
X198296000Y-36957000D03*
%TD*%
D28*
%TO.C,D2*%
X74930000Y-35940000D03*
X74930000Y-32640000D03*
%TD*%
D25*
%TO.C,J6*%
X147320000Y-67455000D03*
D26*
X149860000Y-67455000D03*
X152400000Y-67455000D03*
%TD*%
D29*
%TO.C,IC4*%
X196679000Y-42545000D03*
X196679000Y-43815000D03*
X196679000Y-45085000D03*
X196679000Y-46355000D03*
X202101000Y-46355000D03*
X202101000Y-45085000D03*
X202101000Y-43815000D03*
X202101000Y-42545000D03*
%TD*%
D30*
%TO.C,R5*%
X89899000Y-31750000D03*
X88879000Y-31750000D03*
%TD*%
D31*
%TO.C,Q2*%
X170860000Y-29405000D03*
X170210000Y-29405000D03*
X169560000Y-29405000D03*
X168910000Y-29405000D03*
D32*
X168910000Y-32385000D03*
X169560000Y-32385000D03*
X170210000Y-32385000D03*
X170860000Y-32385000D03*
D33*
X169885000Y-31230000D03*
%TD*%
D23*
%TO.C,C18*%
X153268091Y-45575454D03*
X154818091Y-45575454D03*
%TD*%
D34*
%TO.C,VR2*%
X175435000Y-58490000D03*
D35*
X173435000Y-58490000D03*
X183435000Y-58490000D03*
X177435000Y-58490000D03*
X179435000Y-58490000D03*
X181435000Y-58490000D03*
D36*
X172635000Y-47490000D03*
X184235000Y-47490000D03*
%TD*%
D37*
%TO.C,H1*%
X99795000Y-53340000D03*
X100497944Y-51642944D03*
X100497944Y-55037056D03*
X102195000Y-50940000D03*
D38*
X102195000Y-53340000D03*
D37*
X102195000Y-55740000D03*
X103892056Y-51642944D03*
X103892056Y-55037056D03*
X104595000Y-53340000D03*
%TD*%
D10*
%TO.C,R45*%
X203200000Y-67435000D03*
X203200000Y-68455000D03*
%TD*%
%TO.C,R42*%
X181610000Y-111885000D03*
X181610000Y-112905000D03*
%TD*%
D39*
%TO.C,IC5*%
X127622091Y-27601454D03*
X127122091Y-27601454D03*
X126622091Y-27601454D03*
X126122091Y-27601454D03*
X125622091Y-27601454D03*
X125122091Y-27601454D03*
X124622091Y-27601454D03*
X124122091Y-27601454D03*
X123622091Y-27601454D03*
X123122091Y-27601454D03*
X122622091Y-27601454D03*
X122122091Y-27601454D03*
X121622091Y-27601454D03*
X121122091Y-27601454D03*
X120622091Y-27601454D03*
X120122091Y-27601454D03*
D40*
X118134091Y-29589454D03*
X118134091Y-30089454D03*
X118134091Y-30589454D03*
X118134091Y-31089454D03*
X118134091Y-31589454D03*
X118134091Y-32089454D03*
X118134091Y-32589454D03*
X118134091Y-33089454D03*
X118134091Y-33589454D03*
X118134091Y-34089454D03*
X118134091Y-34589454D03*
X118134091Y-35089454D03*
X118134091Y-35589454D03*
X118134091Y-36089454D03*
X118134091Y-36589454D03*
X118134091Y-37089454D03*
D39*
X120122091Y-39077454D03*
X120622091Y-39077454D03*
X121122091Y-39077454D03*
X121622091Y-39077454D03*
X122122091Y-39077454D03*
X122622091Y-39077454D03*
X123122091Y-39077454D03*
X123622091Y-39077454D03*
X124122091Y-39077454D03*
X124622091Y-39077454D03*
X125122091Y-39077454D03*
X125622091Y-39077454D03*
X126122091Y-39077454D03*
X126622091Y-39077454D03*
X127122091Y-39077454D03*
X127622091Y-39077454D03*
D40*
X129610091Y-37089454D03*
X129610091Y-36589454D03*
X129610091Y-36089454D03*
X129610091Y-35589454D03*
X129610091Y-35089454D03*
X129610091Y-34589454D03*
X129610091Y-34089454D03*
X129610091Y-33589454D03*
X129610091Y-33089454D03*
X129610091Y-32589454D03*
X129610091Y-32089454D03*
X129610091Y-31589454D03*
X129610091Y-31089454D03*
X129610091Y-30589454D03*
X129610091Y-30089454D03*
X129610091Y-29589454D03*
%TD*%
D22*
%TO.C,S30*%
X178235000Y-71025000D03*
X184985000Y-71025000D03*
X178235000Y-75025000D03*
X184985000Y-75025000D03*
%TD*%
D11*
%TO.C,R15*%
X68580000Y-52580000D03*
X68580000Y-51560000D03*
%TD*%
D10*
%TO.C,R31*%
X122555000Y-142365000D03*
X122555000Y-143385000D03*
%TD*%
%TO.C,R11*%
X189865000Y-45085000D03*
X189865000Y-46105000D03*
%TD*%
D22*
%TO.C,S6*%
X60125000Y-92615000D03*
X66875000Y-92615000D03*
X60125000Y-96615000D03*
X66875000Y-96615000D03*
%TD*%
D41*
%TO.C,J3*%
X199310000Y-20095000D03*
X189310000Y-20095000D03*
X199310000Y-22595000D03*
X189310000Y-22595000D03*
X194310000Y-27595000D03*
D24*
X194310000Y-22595000D03*
X189310000Y-27595000D03*
X199310000Y-27595000D03*
X191810000Y-27595000D03*
X196810000Y-27595000D03*
%TD*%
D25*
%TO.C,J8*%
X147320000Y-58275000D03*
D26*
X149860000Y-58275000D03*
X152400000Y-58275000D03*
%TD*%
D10*
%TO.C,R30*%
X114935000Y-130935000D03*
X114935000Y-131955000D03*
%TD*%
D42*
%TO.C,IC11*%
X151378000Y-74295000D03*
X151378000Y-75565000D03*
X151378000Y-76835000D03*
X151378000Y-78105000D03*
X151378000Y-79375000D03*
X151378000Y-80645000D03*
X151378000Y-81915000D03*
X151378000Y-83185000D03*
X158502000Y-83185000D03*
X158502000Y-81915000D03*
X158502000Y-80645000D03*
X158502000Y-79375000D03*
X158502000Y-78105000D03*
X158502000Y-76835000D03*
X158502000Y-75565000D03*
X158502000Y-74295000D03*
%TD*%
D10*
%TO.C,R37*%
X175895000Y-130935000D03*
X175895000Y-131955000D03*
%TD*%
%TO.C,R41*%
X194945000Y-123315000D03*
X194945000Y-124335000D03*
%TD*%
%TO.C,R1*%
X76200000Y-26795000D03*
X76200000Y-27815000D03*
%TD*%
D12*
%TO.C,R13*%
X199261000Y-33909000D03*
X200281000Y-33909000D03*
%TD*%
D10*
%TO.C,R27*%
X92075000Y-142365000D03*
X92075000Y-143385000D03*
%TD*%
D43*
%TO.C,VR1*%
X206415000Y-32305000D03*
X206415000Y-29805000D03*
X206415000Y-27305000D03*
X208915000Y-32305000D03*
X208915000Y-29805000D03*
X208915000Y-27305000D03*
%TD*%
D22*
%TO.C,S23*%
X167440000Y-134525000D03*
X174190000Y-134525000D03*
X167440000Y-138525000D03*
X174190000Y-138525000D03*
%TD*%
D10*
%TO.C,R28*%
X99695000Y-130935000D03*
X99695000Y-131955000D03*
%TD*%
D37*
%TO.C,H3*%
X99795000Y-104140000D03*
X100497944Y-102442944D03*
X100497944Y-105837056D03*
X102195000Y-101740000D03*
D38*
X102195000Y-104140000D03*
D37*
X102195000Y-106540000D03*
X103892056Y-102442944D03*
X103892056Y-105837056D03*
X104595000Y-104140000D03*
%TD*%
D22*
%TO.C,S34*%
X76635000Y-54515000D03*
X83385000Y-54515000D03*
X76635000Y-58515000D03*
X83385000Y-58515000D03*
%TD*%
%TO.C,S29*%
X199825000Y-115475000D03*
X206575000Y-115475000D03*
X199825000Y-119475000D03*
X206575000Y-119475000D03*
%TD*%
%TO.C,S22*%
X159820000Y-145955000D03*
X166570000Y-145955000D03*
X159820000Y-149955000D03*
X166570000Y-149955000D03*
%TD*%
D37*
%TO.C,H2*%
X158295000Y-53340000D03*
X158997944Y-51642944D03*
X158997944Y-55037056D03*
X160695000Y-50940000D03*
D38*
X160695000Y-53340000D03*
D37*
X160695000Y-55740000D03*
X162392056Y-51642944D03*
X162392056Y-55037056D03*
X163095000Y-53340000D03*
%TD*%
D10*
%TO.C,R48*%
X85090000Y-50925000D03*
X85090000Y-51945000D03*
%TD*%
D25*
%TO.C,J10*%
X180340000Y-23495000D03*
D26*
X180340000Y-20955000D03*
%TD*%
D42*
%TO.C,IC9*%
X117723000Y-88265000D03*
X117723000Y-89535000D03*
X117723000Y-90805000D03*
X117723000Y-92075000D03*
X117723000Y-93345000D03*
X117723000Y-94615000D03*
X117723000Y-95885000D03*
X117723000Y-97155000D03*
X124847000Y-97155000D03*
X124847000Y-95885000D03*
X124847000Y-94615000D03*
X124847000Y-93345000D03*
X124847000Y-92075000D03*
X124847000Y-90805000D03*
X124847000Y-89535000D03*
X124847000Y-88265000D03*
%TD*%
D16*
%TO.C,C19*%
X153527091Y-42922454D03*
X154487091Y-42922454D03*
%TD*%
D10*
%TO.C,R47*%
X203200000Y-83310000D03*
X203200000Y-84330000D03*
%TD*%
D11*
%TO.C,R12*%
X208915000Y-47375000D03*
X208915000Y-46355000D03*
%TD*%
D22*
%TO.C,S24*%
X175060000Y-145955000D03*
X181810000Y-145955000D03*
X175060000Y-149955000D03*
X181810000Y-149955000D03*
%TD*%
%TO.C,S16*%
X106480000Y-134525000D03*
X113230000Y-134525000D03*
X106480000Y-138525000D03*
X113230000Y-138525000D03*
%TD*%
%TO.C,S32*%
X178235000Y-86900000D03*
X184985000Y-86900000D03*
X178235000Y-90900000D03*
X184985000Y-90900000D03*
%TD*%
D19*
%TO.C,C1*%
X78105000Y-30960000D03*
X78105000Y-30000000D03*
%TD*%
D22*
%TO.C,S21*%
X152200000Y-134525000D03*
X158950000Y-134525000D03*
X152200000Y-138525000D03*
X158950000Y-138525000D03*
%TD*%
D16*
%TO.C,C21*%
X159667000Y-27940000D03*
X160627000Y-27940000D03*
%TD*%
%TO.C,C16*%
X123682091Y-42252454D03*
X124642091Y-42252454D03*
%TD*%
D22*
%TO.C,S9*%
X76635000Y-105315000D03*
X83385000Y-105315000D03*
X76635000Y-109315000D03*
X83385000Y-109315000D03*
%TD*%
%TO.C,S25*%
X199825000Y-104045000D03*
X206575000Y-104045000D03*
X199825000Y-108045000D03*
X206575000Y-108045000D03*
%TD*%
%TO.C,S13*%
X83620000Y-145955000D03*
X90370000Y-145955000D03*
X83620000Y-149955000D03*
X90370000Y-149955000D03*
%TD*%
D10*
%TO.C,R23*%
X85090000Y-101725000D03*
X85090000Y-102745000D03*
%TD*%
D22*
%TO.C,S17*%
X114100000Y-145955000D03*
X120850000Y-145955000D03*
X114100000Y-149955000D03*
X120850000Y-149955000D03*
%TD*%
D12*
%TO.C,R8*%
X188720000Y-55245000D03*
X189740000Y-55245000D03*
%TD*%
D22*
%TO.C,S8*%
X60125000Y-105315000D03*
X66875000Y-105315000D03*
X60125000Y-109315000D03*
X66875000Y-109315000D03*
%TD*%
D10*
%TO.C,R40*%
X194945000Y-100455000D03*
X194945000Y-101475000D03*
%TD*%
%TO.C,R20*%
X68580000Y-89025000D03*
X68580000Y-90045000D03*
%TD*%
%TO.C,R35*%
X160655000Y-130935000D03*
X160655000Y-131955000D03*
%TD*%
D44*
%TO.C,J1*%
X57150000Y-31200000D03*
X57150000Y-25400000D03*
X52350000Y-28200000D03*
%TD*%
D22*
%TO.C,S27*%
X186490000Y-126905000D03*
X193240000Y-126905000D03*
X186490000Y-130905000D03*
X193240000Y-130905000D03*
%TD*%
D21*
%TO.C,C17*%
X115272091Y-37962454D03*
X115272091Y-38922454D03*
%TD*%
D22*
%TO.C,S31*%
X194745000Y-71025000D03*
X201495000Y-71025000D03*
X194745000Y-75025000D03*
X201495000Y-75025000D03*
%TD*%
D45*
%TO.C,IC3*%
X88900000Y-27310000D03*
X88900000Y-28260000D03*
X88900000Y-29210000D03*
X91400000Y-29210000D03*
X91400000Y-27310000D03*
%TD*%
D12*
%TO.C,R6*%
X91419000Y-31750000D03*
X92439000Y-31750000D03*
%TD*%
D11*
%TO.C,R10*%
X208915000Y-44200000D03*
X208915000Y-43180000D03*
%TD*%
D31*
%TO.C,Q1*%
X166710000Y-29405000D03*
X166060000Y-29405000D03*
X165410000Y-29405000D03*
X164760000Y-29405000D03*
D32*
X164760000Y-32385000D03*
X165410000Y-32385000D03*
X166060000Y-32385000D03*
X166710000Y-32385000D03*
D33*
X165735000Y-31230000D03*
%TD*%
D42*
%TO.C,IC8*%
X104388000Y-74295000D03*
X104388000Y-75565000D03*
X104388000Y-76835000D03*
X104388000Y-78105000D03*
X104388000Y-79375000D03*
X104388000Y-80645000D03*
X104388000Y-81915000D03*
X104388000Y-83185000D03*
X111512000Y-83185000D03*
X111512000Y-81915000D03*
X111512000Y-80645000D03*
X111512000Y-79375000D03*
X111512000Y-78105000D03*
X111512000Y-76835000D03*
X111512000Y-75565000D03*
X111512000Y-74295000D03*
%TD*%
D37*
%TO.C,H4*%
X158295000Y-104140000D03*
X158997944Y-102442944D03*
X158997944Y-105837056D03*
X160695000Y-101740000D03*
D38*
X160695000Y-104140000D03*
D37*
X160695000Y-106540000D03*
X162392056Y-102442944D03*
X162392056Y-105837056D03*
X163095000Y-104140000D03*
%TD*%
D10*
%TO.C,R46*%
X186690000Y-83310000D03*
X186690000Y-84330000D03*
%TD*%
D22*
%TO.C,S12*%
X78540000Y-123095000D03*
X85290000Y-123095000D03*
X78540000Y-127095000D03*
X85290000Y-127095000D03*
%TD*%
D21*
%TO.C,C10*%
X177466000Y-61615000D03*
X177466000Y-62575000D03*
%TD*%
D22*
%TO.C,S18*%
X129340000Y-145955000D03*
X136090000Y-145955000D03*
X129340000Y-149955000D03*
X136090000Y-149955000D03*
%TD*%
%TO.C,S11*%
X62030000Y-145955000D03*
X68780000Y-145955000D03*
X62030000Y-149955000D03*
X68780000Y-149955000D03*
%TD*%
%TO.C,S7*%
X76635000Y-92615000D03*
X83385000Y-92615000D03*
X76635000Y-96615000D03*
X83385000Y-96615000D03*
%TD*%
%TO.C,S28*%
X173155000Y-115475000D03*
X179905000Y-115475000D03*
X173155000Y-119475000D03*
X179905000Y-119475000D03*
%TD*%
%TO.C,S15*%
X98860000Y-145955000D03*
X105610000Y-145955000D03*
X98860000Y-149955000D03*
X105610000Y-149955000D03*
%TD*%
D46*
%TO.C,IC6*%
X153662091Y-26687454D03*
X152392091Y-26687454D03*
X151122091Y-26687454D03*
X149852091Y-26687454D03*
X148582091Y-26687454D03*
X147312091Y-26687454D03*
X146042091Y-26687454D03*
X144772091Y-26687454D03*
X143502091Y-26687454D03*
X142232091Y-26687454D03*
X140962091Y-26687454D03*
X139692091Y-26687454D03*
X138422091Y-26687454D03*
X137152091Y-26687454D03*
X135882091Y-26687454D03*
X134612091Y-26687454D03*
X134612091Y-39987454D03*
X135882091Y-39987454D03*
X137152091Y-39987454D03*
X138422091Y-39987454D03*
X139692091Y-39987454D03*
X140962091Y-39987454D03*
X142232091Y-39987454D03*
X143502091Y-39987454D03*
X144772091Y-39987454D03*
X146042091Y-39987454D03*
X147312091Y-39987454D03*
X148582091Y-39987454D03*
X149852091Y-39987454D03*
X151122091Y-39987454D03*
X152392091Y-39987454D03*
X153662091Y-39987454D03*
%TD*%
D22*
%TO.C,S33*%
X194745000Y-86900000D03*
X201495000Y-86900000D03*
X194745000Y-90900000D03*
X201495000Y-90900000D03*
%TD*%
%TO.C,S35*%
X186490000Y-115475000D03*
X193240000Y-115475000D03*
X186490000Y-119475000D03*
X193240000Y-119475000D03*
%TD*%
%TO.C,S2*%
X60125000Y-67215000D03*
X66875000Y-67215000D03*
X60125000Y-71215000D03*
X66875000Y-71215000D03*
%TD*%
%TO.C,S19*%
X136960000Y-134525000D03*
X143710000Y-134525000D03*
X136960000Y-138525000D03*
X143710000Y-138525000D03*
%TD*%
%TO.C,S26*%
X186490000Y-104045000D03*
X193240000Y-104045000D03*
X186490000Y-108045000D03*
X193240000Y-108045000D03*
%TD*%
D12*
%TO.C,R4*%
X167255000Y-20955000D03*
X168275000Y-20955000D03*
%TD*%
D47*
%TO.C,IC7*%
X158385000Y-34585000D03*
X158885000Y-34585000D03*
X159385000Y-34585000D03*
X159885000Y-34585000D03*
X160385000Y-34585000D03*
X160385000Y-30185000D03*
X159885000Y-30185000D03*
X159385000Y-30185000D03*
X158885000Y-30185000D03*
X158385000Y-30185000D03*
%TD*%
D10*
%TO.C,R44*%
X186690000Y-67435000D03*
X186690000Y-68455000D03*
%TD*%
%TO.C,R43*%
X208280000Y-111885000D03*
X208280000Y-112905000D03*
%TD*%
%TO.C,R33*%
X145415000Y-130935000D03*
X145415000Y-131955000D03*
%TD*%
D48*
%TO.C,D1*%
X76200000Y-21590000D03*
D43*
X78740000Y-21590000D03*
%TD*%
D42*
%TO.C,IC10*%
X138043000Y-88265000D03*
X138043000Y-89535000D03*
X138043000Y-90805000D03*
X138043000Y-92075000D03*
X138043000Y-93345000D03*
X138043000Y-94615000D03*
X138043000Y-95885000D03*
X138043000Y-97155000D03*
X145167000Y-97155000D03*
X145167000Y-95885000D03*
X145167000Y-94615000D03*
X145167000Y-93345000D03*
X145167000Y-92075000D03*
X145167000Y-90805000D03*
X145167000Y-89535000D03*
X145167000Y-88265000D03*
%TD*%
D10*
%TO.C,R9*%
X189865000Y-41910000D03*
X189865000Y-42930000D03*
%TD*%
D49*
%TO.C,IC1*%
X79649000Y-29022000D03*
X79649000Y-29972000D03*
X79649000Y-30922000D03*
X82149000Y-30922000D03*
X82149000Y-29022000D03*
%TD*%
D16*
%TO.C,C24*%
X146840000Y-88265000D03*
X147800000Y-88265000D03*
%TD*%
D50*
%TO.C,C5*%
X93345000Y-27165000D03*
X93345000Y-28715000D03*
%TD*%
D27*
%TO.C,C12*%
X191213000Y-36957000D03*
X188263000Y-36957000D03*
%TD*%
D25*
%TO.C,J9*%
X184150000Y-23495000D03*
D26*
X184150000Y-20955000D03*
%TD*%
D22*
%TO.C,S4*%
X60125000Y-79915000D03*
X66875000Y-79915000D03*
X60125000Y-83915000D03*
X66875000Y-83915000D03*
%TD*%
%TO.C,S10*%
X62030000Y-134525000D03*
X68780000Y-134525000D03*
X62030000Y-138525000D03*
X68780000Y-138525000D03*
%TD*%
D10*
%TO.C,R22*%
X68580000Y-101725000D03*
X68580000Y-102745000D03*
%TD*%
D25*
%TO.C,J4*%
X58420000Y-55880000D03*
D26*
X58420000Y-53340000D03*
X58420000Y-50800000D03*
X58420000Y-48260000D03*
X58420000Y-45720000D03*
%TD*%
D51*
%TO.C,U1*%
X102290000Y-30095000D03*
X174510000Y-30095000D03*
D52*
X165690000Y-37965000D03*
D53*
X102290000Y-37965000D03*
D52*
X110490000Y-22225000D03*
%TD*%
M02*
