M48
; DRILL file {KiCad 9.0.1} date 2025-04-16T22:38:05-0500
; FORMAT={-:-/ absolute / metric / decimal}
; #@! TF.CreationDate,2025-04-16T22:38:05-05:00
; #@! TF.GenerationSoftware,Kicad,Pcbnew,9.0.1
; #@! TF.FileFunction,Plated,1,4,PTH
FMAT,2
METRIC
; #@! TA.AperFunction,Plated,PTH,ViaDrill
T1C0.200
; #@! TA.AperFunction,Plated,PTH,ViaDrill
T2C0.300
; #@! TA.AperFunction,Plated,PTH,ViaDrill
T3C0.500
; #@! TA.AperFunction,Plated,PTH,ComponentDrill
T4C0.500
; #@! TA.AperFunction,Plated,PTH,ComponentDrill
T5C0.780
; #@! TA.AperFunction,Plated,PTH,ComponentDrill
T6C0.900
; #@! TA.AperFunction,Plated,PTH,ComponentDrill
T7C1.000
; #@! TA.AperFunction,Plated,PTH,ComponentDrill
T8C1.200
; #@! TA.AperFunction,Plated,PTH,ComponentDrill
T9C1.320
; #@! TA.AperFunction,Plated,PTH,ComponentDrill
T10C1.460
; #@! TA.AperFunction,Plated,PTH,ComponentDrill
T11C1.600
; #@! TA.AperFunction,Plated,PTH,ComponentDrill
T12C1.700
; #@! TA.AperFunction,Plated,PTH,ComponentDrill
T13C2.390
; #@! TA.AperFunction,Plated,PTH,ComponentDrill
T14C2.970
; #@! TA.AperFunction,Plated,PTH,ComponentDrill
T15C3.200
; #@! TA.AperFunction,Plated,PTH,ComponentDrill
T16C3.550
%
G90
G05
T1
X68.58Y-62.23
X68.58Y-74.93
X68.58Y-87.63
X68.58Y-100.33
X70.485Y-129.54
X70.485Y-140.97
X82.55Y-62.865
X82.55Y-75.565
X82.55Y-88.9
X82.55Y-101.6
X83.185Y-52.07
X85.09Y-62.23
X85.09Y-74.93
X85.09Y-87.63
X85.09Y-100.33
X85.09Y-120.015
X92.075Y-140.97
X96.52Y-121.285
X96.52Y-123.825
X97.028Y-35.814
X97.79Y-121.285
X97.79Y-123.825
X99.06Y-121.285
X99.695Y-129.54
X100.33Y-121.285
X102.235Y-133.35
X106.68Y-81.915
X107.315Y-140.97
X109.22Y-83.185
X111.125Y-53.34
X113.665Y-83.185
X114.935Y-36.195
X114.935Y-40.64
X114.935Y-83.185
X114.935Y-129.54
X115.57Y-35.56
X115.57Y-41.275
X116.205Y-36.195
X116.205Y-40.64
X116.205Y-83.185
X116.713Y-29.591
X116.84Y-36.83
X116.84Y-41.275
X117.475Y-83.185
X118.745Y-129.54
X119.38Y-43.815
X119.38Y-94.615
X119.634Y-34.544
X120.015Y-41.91
X120.015Y-92.71
X121.285Y-46.99
X121.285Y-90.17
X121.92Y-43.815
X122.555Y-46.99
X122.555Y-140.97
X123.825Y-37.465
X124.46Y-41.275
X125.072Y-40.64
X125.095Y-78.105
X125.73Y-64.77
X125.984Y-37.338
X126.324Y-36.726
X126.365Y-65.405
X127.0Y-64.77
X127.119Y-36.685
X127.5Y-34.145
X127.627Y-36.05
X127.635Y-65.405
X128.079Y-34.836
X128.235Y-36.456
X128.905Y-41.656
X130.096Y-28.756
X130.175Y-40.64
X130.654Y-37.139
X131.183Y-33.51
X131.699Y-38.844
X131.762Y-27.089
X132.72Y-27.479
X132.919Y-33.572
X133.215Y-27.974
X133.395Y-34.086
X133.569Y-41.79
X133.723Y-28.455
X134.612Y-38.336
X135.374Y-24.493
X135.755Y-32.763
X135.882Y-38.336
X136.263Y-24.493
X136.368Y-42.296
X136.602Y-32.763
X137.152Y-24.493
X137.317Y-32.763
X137.404Y-42.358
X137.795Y-140.97
X137.914Y-24.493
X137.914Y-33.129
X138.676Y-24.493
X138.676Y-32.763
X139.692Y-28.43
X139.692Y-34.272
X139.7Y-67.945
X140.335Y-92.075
X140.962Y-28.43
X140.962Y-33.51
X140.97Y-69.215
X140.97Y-91.44
X141.605Y-90.805
X142.232Y-28.43
X142.232Y-32.875
X142.24Y-70.485
X142.24Y-91.44
X143.42Y-35.034
X143.51Y-131.445
X143.821Y-35.796
X144.145Y-70.485
X145.322Y-36.811
X145.322Y-35.725
X147.32Y-128.27
X147.32Y-129.54
X148.574Y-34.534
X148.59Y-32.995
X148.59Y-129.54
X149.225Y-80.645
X151.118Y-28.455
X151.13Y-142.875
X151.828Y-29.391
X152.654Y-24.765
X153.035Y-74.295
X153.67Y-75.565
X153.67Y-82.55
X154.305Y-132.715
X154.94Y-83.82
X155.257Y-27.368
X156.21Y-82.55
X156.845Y-132.715
X158.115Y-71.12
X158.75Y-33.02
X160.02Y-78.105
X160.655Y-71.12
X160.655Y-129.54
X161.29Y-80.01
X163.83Y-128.27
X165.735Y-86.995
X165.735Y-88.265
X166.37Y-90.17
X166.37Y-142.875
X167.005Y-86.995
X173.99Y-131.445
X177.165Y-95.885
X181.61Y-110.49
X183.515Y-140.97
X184.785Y-67.945
X184.785Y-112.395
X186.69Y-81.915
X193.04Y-100.965
X193.04Y-112.395
X193.04Y-123.825
X203.2Y-66.04
X203.2Y-81.915
X206.375Y-100.965
X206.375Y-112.395
T2
X68.58Y-43.18
X68.58Y-48.26
X68.58Y-53.975
X82.55Y-22.86
X93.345Y-25.4
X93.345Y-30.48
X95.25Y-26.67
X95.25Y-29.21
X111.125Y-71.755
X116.22Y-93.345
X118.11Y-38.735
X120.65Y-97.155
X121.285Y-88.265
X121.935Y-45.085
X124.422Y-43.815
X133.37Y-26.67
X134.605Y-25.423
X140.97Y-36.83
X141.605Y-97.155
X142.89Y-88.265
X151.765Y-45.72
X153.035Y-46.99
X158.623Y-36.068
X158.75Y-73.025
X159.385Y-26.67
X159.639Y-36.068
X161.29Y-73.025
X165.989Y-20.955
X166.37Y-27.94
X167.64Y-29.845
X189.865Y-40.64
X202.565Y-39.37
X205.105Y-39.37
X208.915Y-41.91
T3
X77.724Y-32.766
X193.675Y-36.83
X203.835Y-36.83
T4
X99.795Y-53.34
X99.795Y-104.14
X100.498Y-51.643
X100.498Y-55.037
X100.498Y-102.443
X100.498Y-105.837
X102.195Y-50.94
X102.195Y-55.74
X102.195Y-101.74
X102.195Y-106.54
X103.892Y-51.643
X103.892Y-55.037
X103.892Y-102.443
X103.892Y-105.837
X104.595Y-53.34
X104.595Y-104.14
X158.295Y-53.34
X158.295Y-104.14
X158.998Y-51.643
X158.998Y-55.037
X158.998Y-102.443
X158.998Y-105.837
X160.695Y-50.94
X160.695Y-55.74
X160.695Y-101.74
X160.695Y-106.54
X162.392Y-51.643
X162.392Y-55.037
X162.392Y-102.443
X162.392Y-105.837
X163.095Y-53.34
X163.095Y-104.14
T5
X90.054Y-21.59
X92.054Y-21.59
X94.054Y-21.59
T6
X76.2Y-21.59
X78.74Y-21.59
T7
X58.42Y-45.72
X58.42Y-48.26
X58.42Y-50.8
X58.42Y-53.34
X58.42Y-55.88
X121.285Y-53.34
X123.825Y-53.34
X126.365Y-53.34
X128.905Y-53.34
X131.445Y-53.34
X133.985Y-53.34
X136.525Y-53.34
X139.065Y-53.34
X141.605Y-53.34
X147.32Y-58.275
X147.32Y-62.865
X147.32Y-67.455
X149.86Y-58.275
X149.86Y-62.865
X149.86Y-67.455
X152.4Y-58.275
X152.4Y-62.865
X152.4Y-67.455
X173.435Y-58.49
X175.435Y-58.49
X177.435Y-58.49
X179.435Y-58.49
X180.34Y-20.955
X180.34Y-23.495
X181.435Y-58.49
X183.435Y-58.49
X184.15Y-20.955
X184.15Y-23.495
T8
X206.415Y-27.305
X206.415Y-29.805
X206.415Y-32.305
X208.915Y-27.305
X208.915Y-29.805
X208.915Y-32.305
T9
X102.29Y-30.095
X174.51Y-30.095
T10
X87.954Y-21.59
X96.154Y-21.59
T11
X66.88Y-22.475
X66.88Y-35.945
X70.28Y-22.475
X70.28Y-35.945
T12
X189.31Y-27.595
X191.81Y-27.595
X194.31Y-22.595
X196.81Y-27.595
X199.31Y-27.595
T13
X102.29Y-37.965
T14
X172.635Y-47.49
X184.235Y-47.49
T15
X52.35Y-28.2
X57.15Y-25.4
X57.15Y-31.2
X102.195Y-53.34
X102.195Y-104.14
X160.695Y-53.34
X160.695Y-104.14
T16
X110.49Y-22.225
X165.69Y-37.965
M30
