%TF.GenerationSoftware,KiCad,Pcbnew,9.0.1*%
%TF.CreationDate,2025-04-16T22:38:01-05:00*%
%TF.ProjectId,mt,6d742e6b-6963-4616-945f-706362585858,rev?*%
%TF.SameCoordinates,Original*%
%TF.FileFunction,Legend,Bot*%
%TF.FilePolarity,Positive*%
%FSLAX46Y46*%
G04 Gerber Fmt 4.6, Leading zero omitted, Abs format (unit mm)*
G04 Created by KiCad (PCBNEW 9.0.1) date 2025-04-16 22:38:01*
%MOMM*%
%LPD*%
G01*
G04 APERTURE LIST*
%ADD10C,0.254000*%
%ADD11C,0.200000*%
%ADD12C,0.100000*%
G04 APERTURE END LIST*
D10*
X139377619Y-29399318D02*
X139377619Y-30427413D01*
X139377619Y-30427413D02*
X139317142Y-30548365D01*
X139317142Y-30548365D02*
X139256666Y-30608842D01*
X139256666Y-30608842D02*
X139135714Y-30669318D01*
X139135714Y-30669318D02*
X138893809Y-30669318D01*
X138893809Y-30669318D02*
X138772857Y-30608842D01*
X138772857Y-30608842D02*
X138712380Y-30548365D01*
X138712380Y-30548365D02*
X138651904Y-30427413D01*
X138651904Y-30427413D02*
X138651904Y-29399318D01*
X137381904Y-30669318D02*
X138107619Y-30669318D01*
X137744762Y-30669318D02*
X137744762Y-29399318D01*
X137744762Y-29399318D02*
X137865714Y-29580746D01*
X137865714Y-29580746D02*
X137986666Y-29701699D01*
X137986666Y-29701699D02*
X138107619Y-29762175D01*
D11*
%TO.C,U1*%
X99390000Y-29995000D02*
X99390000Y-29995000D01*
X99390000Y-30195000D02*
X99390000Y-30195000D01*
D12*
X99885000Y-19770000D02*
X99885000Y-19770000D01*
X99885000Y-19770000D02*
X99885000Y-40420000D01*
X99885000Y-40420000D02*
X99885000Y-19770000D01*
X99885000Y-40420000D02*
X99885000Y-40420000D01*
X176935000Y-19770000D02*
X176935000Y-19770000D01*
X176935000Y-19770000D02*
X176935000Y-40420000D01*
X176935000Y-40420000D02*
X176935000Y-19770000D01*
X176935000Y-40420000D02*
X176935000Y-40420000D01*
D11*
X99390000Y-29995000D02*
G75*
G02*
X99390000Y-30195000I0J-100000D01*
G01*
X99390000Y-30195000D02*
G75*
G02*
X99390000Y-29995000I0J100000D01*
G01*
%TD*%
M02*
