%TF.GenerationSoftware,KiCad,Pcbnew,9.0.1*%
%TF.CreationDate,2025-04-16T22:38:01-05:00*%
%TF.ProjectId,mt,6d742e6b-6963-4616-945f-706362585858,rev?*%
%TF.SameCoordinates,Original*%
%TF.FileFunction,Soldermask,Bot*%
%TF.FilePolarity,Negative*%
%FSLAX46Y46*%
G04 Gerber Fmt 4.6, Leading zero omitted, Abs format (unit mm)*
G04 Created by KiCad (PCBNEW 9.0.1) date 2025-04-16 22:38:01*
%MOMM*%
%LPD*%
G01*
G04 APERTURE LIST*
%ADD10R,1.337000X1.337000*%
%ADD11C,1.337000*%
%ADD12C,2.190000*%
%ADD13C,2.400000*%
%ADD14R,1.700000X1.700000*%
%ADD15C,1.700000*%
%ADD16R,1.500000X1.500000*%
%ADD17C,1.500000*%
%ADD18C,4.455000*%
%ADD19C,0.800000*%
%ADD20C,6.400000*%
%ADD21C,1.200000*%
%ADD22C,1.800000*%
%ADD23C,4.800000*%
%ADD24R,1.800000X1.800000*%
%ADD25C,1.980000*%
%ADD26C,5.325000*%
%ADD27C,3.585000*%
G04 APERTURE END LIST*
D10*
%TO.C,S1*%
X94054000Y-21590000D03*
D11*
X92054000Y-21590000D03*
X90054000Y-21590000D03*
D12*
X96154000Y-21590000D03*
X87954000Y-21590000D03*
%TD*%
D13*
%TO.C,J2*%
X70280000Y-22475000D03*
X70280000Y-35945000D03*
X66880000Y-22475000D03*
X66880000Y-35945000D03*
%TD*%
D14*
%TO.C,J5*%
X121285000Y-53340000D03*
D15*
X123825000Y-53340000D03*
X126365000Y-53340000D03*
X128905000Y-53340000D03*
X131445000Y-53340000D03*
X133985000Y-53340000D03*
X136525000Y-53340000D03*
X139065000Y-53340000D03*
X141605000Y-53340000D03*
%TD*%
D14*
%TO.C,J7*%
X147320000Y-62865000D03*
D15*
X149860000Y-62865000D03*
X152400000Y-62865000D03*
%TD*%
D14*
%TO.C,J6*%
X147320000Y-67455000D03*
D15*
X149860000Y-67455000D03*
X152400000Y-67455000D03*
%TD*%
D16*
%TO.C,VR2*%
X175435000Y-58490000D03*
D17*
X173435000Y-58490000D03*
X183435000Y-58490000D03*
X177435000Y-58490000D03*
X179435000Y-58490000D03*
X181435000Y-58490000D03*
D18*
X172635000Y-47490000D03*
X184235000Y-47490000D03*
%TD*%
D19*
%TO.C,H1*%
X99795000Y-53340000D03*
X100497944Y-51642944D03*
X100497944Y-55037056D03*
X102195000Y-50940000D03*
D20*
X102195000Y-53340000D03*
D19*
X102195000Y-55740000D03*
X103892056Y-51642944D03*
X103892056Y-55037056D03*
X104595000Y-53340000D03*
%TD*%
D21*
%TO.C,J3*%
X199310000Y-20095000D03*
X189310000Y-20095000D03*
X199310000Y-22595000D03*
X189310000Y-22595000D03*
X194310000Y-27595000D03*
D13*
X194310000Y-22595000D03*
X189310000Y-27595000D03*
X199310000Y-27595000D03*
X191810000Y-27595000D03*
X196810000Y-27595000D03*
%TD*%
D14*
%TO.C,J8*%
X147320000Y-58275000D03*
D15*
X149860000Y-58275000D03*
X152400000Y-58275000D03*
%TD*%
D22*
%TO.C,VR1*%
X206415000Y-32305000D03*
X206415000Y-29805000D03*
X206415000Y-27305000D03*
X208915000Y-32305000D03*
X208915000Y-29805000D03*
X208915000Y-27305000D03*
%TD*%
D19*
%TO.C,H3*%
X99795000Y-104140000D03*
X100497944Y-102442944D03*
X100497944Y-105837056D03*
X102195000Y-101740000D03*
D20*
X102195000Y-104140000D03*
D19*
X102195000Y-106540000D03*
X103892056Y-102442944D03*
X103892056Y-105837056D03*
X104595000Y-104140000D03*
%TD*%
%TO.C,H2*%
X158295000Y-53340000D03*
X158997944Y-51642944D03*
X158997944Y-55037056D03*
X160695000Y-50940000D03*
D20*
X160695000Y-53340000D03*
D19*
X160695000Y-55740000D03*
X162392056Y-51642944D03*
X162392056Y-55037056D03*
X163095000Y-53340000D03*
%TD*%
D14*
%TO.C,J10*%
X180340000Y-23495000D03*
D15*
X180340000Y-20955000D03*
%TD*%
D23*
%TO.C,J1*%
X57150000Y-31200000D03*
X57150000Y-25400000D03*
X52350000Y-28200000D03*
%TD*%
D19*
%TO.C,H4*%
X158295000Y-104140000D03*
X158997944Y-102442944D03*
X158997944Y-105837056D03*
X160695000Y-101740000D03*
D20*
X160695000Y-104140000D03*
D19*
X160695000Y-106540000D03*
X162392056Y-102442944D03*
X162392056Y-105837056D03*
X163095000Y-104140000D03*
%TD*%
D24*
%TO.C,D1*%
X76200000Y-21590000D03*
D22*
X78740000Y-21590000D03*
%TD*%
D14*
%TO.C,J9*%
X184150000Y-23495000D03*
D15*
X184150000Y-20955000D03*
%TD*%
D14*
%TO.C,J4*%
X58420000Y-55880000D03*
D15*
X58420000Y-53340000D03*
X58420000Y-50800000D03*
X58420000Y-48260000D03*
X58420000Y-45720000D03*
%TD*%
D25*
%TO.C,U1*%
X102290000Y-30095000D03*
X174510000Y-30095000D03*
D26*
X165690000Y-37965000D03*
D27*
X102290000Y-37965000D03*
D26*
X110490000Y-22225000D03*
%TD*%
M02*
